HIERARCHY
ROOT joint_Root
{
	OFFSET 0.0 0.0 0.0
	CHANNELS 6 Xposition Yposition Zposition Zrotation Xrotation Yrotation 
	JOINT Hips
	{
		OFFSET -17.1583 93.1646 452.98
		CHANNELS 6 Xposition Yposition Zposition Zrotation Xrotation Yrotation 
		JOINT Spine
		{
			OFFSET 15.7357 0.0 0.0
			CHANNELS 6 Xposition Yposition Zposition Zrotation Xrotation Yrotation 
			JOINT Chest
			{
				OFFSET 8.98455 -0.406207 0.0
				CHANNELS 6 Xposition Yposition Zposition Zrotation Xrotation Yrotation 
				JOINT Neck
				{
					OFFSET 16.3773 0.0 0.0
					CHANNELS 6 Xposition Yposition Zposition Zrotation Xrotation Yrotation 
					JOINT Head
					{
						OFFSET 6.45672 0.0 0.0
						CHANNELS 6 Xposition Yposition Zposition Zrotation Xrotation Yrotation 
						End Site
						{
							OFFSET 0.0 0.0 0.0
						}
					}
				}
				JOINT Shoulder_L
				{
					OFFSET 12.9942 -0.242716 4.98039
					CHANNELS 6 Xposition Yposition Zposition Zrotation Xrotation Yrotation 
					JOINT UpperArm_L
					{
						OFFSET 5.34809 0.0 0.0
						CHANNELS 6 Xposition Yposition Zposition Zrotation Xrotation Yrotation 
						JOINT LowerArm_L
						{
							OFFSET 24.3286 1.87007e-05 0.0
							CHANNELS 6 Xposition Yposition Zposition Zrotation Xrotation Yrotation 
							JOINT Hand_L
							{
								OFFSET 22.2916 0.0 0.0
								CHANNELS 6 Xposition Yposition Zposition Zrotation Xrotation Yrotation 
								End Site
								{
									OFFSET 0.0 0.0 0.0
								}
							}
						}
					}
				}
				JOINT Shoulder_R
				{
					OFFSET 12.9945 -0.242716 -4.98039
					CHANNELS 6 Xposition Yposition Zposition Zrotation Xrotation Yrotation 
					JOINT UpperArm_R
					{
						OFFSET -5.34813 0.0 0.0
						CHANNELS 6 Xposition Yposition Zposition Zrotation Xrotation Yrotation 
						JOINT LowerArm_R
						{
							OFFSET -24.3289 0.000322201 0.0
							CHANNELS 6 Xposition Yposition Zposition Zrotation Xrotation Yrotation 
							JOINT Hand_R
							{
								OFFSET -22.2915 -0.000108084 0.0
								CHANNELS 6 Xposition Yposition Zposition Zrotation Xrotation Yrotation 
								End Site
								{
									OFFSET 0.0 0.0 0.0
								}
							}
						}
					}
				}
			}
		}
		JOINT UpperLeg_L
		{
			OFFSET -2.19248 -6.46944 0.0
			CHANNELS 6 Xposition Yposition Zposition Zrotation Xrotation Yrotation 
			JOINT LowerLeg_L
			{
				OFFSET 39.0811 0.0 -1.23785e-05
				CHANNELS 6 Xposition Yposition Zposition Zrotation Xrotation Yrotation 
				JOINT Foot_L
				{
					OFFSET 40.9854 0.0 -1.26872e-05
					CHANNELS 6 Xposition Yposition Zposition Zrotation Xrotation Yrotation 
					JOINT Toes_L
					{
						OFFSET 11.7543 0.0 0.0
						CHANNELS 6 Xposition Yposition Zposition Zrotation Xrotation Yrotation 
						End Site
						{
							OFFSET 0.0 0.0 0.0
						}
					}
				}
			}
		}
		JOINT UpperLeg_R
		{
			OFFSET -2.19251 6.46944 0.0
			CHANNELS 6 Xposition Yposition Zposition Zrotation Xrotation Yrotation 
			JOINT LowerLeg_R
			{
				OFFSET -39.0811 -0.00228153 -0.0401928
				CHANNELS 6 Xposition Yposition Zposition Zrotation Xrotation Yrotation 
				JOINT Foot_R
				{
					OFFSET -40.9854 0.0 0.0
					CHANNELS 6 Xposition Yposition Zposition Zrotation Xrotation Yrotation 
					JOINT Toes_R
					{
						OFFSET -11.7543 0.0 0.0
						CHANNELS 6 Xposition Yposition Zposition Zrotation Xrotation Yrotation 
						End Site
						{
							OFFSET 0.0 0.0 0.0
						}
					}
				}
			}
		}
	}
}
MOTION
Frames:	7
Frame Time:	0.0333333
0.000000 0.000000 0.000000 0.000000 0.000000 -0.000000 -3.188310 93.401700 -5.177570 87.527100 1.753810 3.782060 15.735700 0.000005 -0.000001 87.037200 84.689300 -85.465800 8.984550 -0.406207 -0.000000 2.851680 -0.615815 3.154830 16.377300 -0.000001 -0.000001 1.323230 1.408050 -1.920780 6.456720 -0.000001 -0.000000 -11.894900 0.244805 -1.119220 12.994200 -0.242716 4.980390 -92.718900 8.967030 -73.055300 5.348090 -0.000007 -0.000001 -66.941900 33.292400 -12.174600 24.328600 0.000019 0.000005 9.533020 29.279800 -18.952700 22.291600 -0.000001 0.000005 -17.030000 5.268090 0.901781 12.994500 -0.242716 -4.980390 88.234400 5.820340 -73.092700 -5.348130 -0.000001 -0.000004 -64.109600 40.779100 -17.259200 -24.328900 0.000322 -0.000009 1.779570 6.390540 -15.605500 -22.291500 -0.000108 -0.000004 -9.261560 5.172370 3.430620 -2.192480 -6.469440 -0.000000 -171.375000 -11.208400 -2.406730 39.081100 -0.000007 -0.000012 0.001972 -0.006745 16.298700 40.985400 -0.000006 -0.000013 -2.089640 15.888900 -65.548400 11.754300 -0.000000 0.000003 -0.001060 0.183889 -9.117280 -2.192510 6.469440 -0.000001 178.709000 8.746440 179.783000 -39.081100 -0.002282 -0.040193 0.022935 -0.081345 13.548200 -40.985400 0.000008 0.000006 -4.574560 8.557590 -65.444200 -11.754300 -0.000006 -0.000006 -0.011097 0.279327 -5.222760
0.000000 0.000000 0.000000 0.000000 0.000000 -0.000000 -3.166080 93.432900 -4.982560 87.593800 1.987530 3.171950 15.735700 0.000005 -0.000001 86.512900 84.969500 -85.001000 8.984550 -0.406207 -0.000000 2.287300 -0.683726 3.034470 16.377300 -0.000001 -0.000001 1.029070 1.287020 -1.761840 6.456720 -0.000001 -0.000000 -12.787700 0.124331 -0.781012 12.994200 -0.242716 4.980390 -92.744700 8.833950 -72.662900 5.348090 -0.000007 -0.000001 -63.844100 29.022700 -17.519900 24.328600 0.000019 0.000005 9.049580 35.325200 -15.402800 22.291600 -0.000001 0.000005 -27.147600 5.406640 -3.236700 12.994500 -0.242716 -4.980390 88.185900 5.800690 -72.599700 -5.348130 -0.000001 -0.000004 -61.381400 38.292100 -20.105400 -24.328900 0.000322 -0.000009 1.980790 6.076130 -18.103000 -22.291500 -0.000108 -0.000004 -19.765800 5.069720 5.821440 -2.192480 -6.469440 -0.000000 -171.505000 -11.675100 -2.737650 39.081100 -0.000007 -0.000012 -0.001214 0.004281 15.823200 40.985400 -0.000006 -0.000013 -2.080280 16.427600 -65.226300 11.754300 -0.000000 0.000003 -0.001632 0.191635 -8.802440 -2.192510 6.469440 -0.000001 178.561000 9.852540 179.521000 -39.081100 -0.002282 -0.040193 0.020726 -0.074309 13.173700 -40.985400 0.000008 0.000006 -4.794470 9.439340 -65.209600 -11.754300 -0.000006 -0.000006 -0.010559 0.275439 -5.381880
0.000000 0.000000 0.000000 0.000000 0.000000 -0.000000 -3.155850 93.524600 -4.784150 87.629500 2.341160 2.253400 15.735700 0.000005 -0.000001 85.624700 85.571900 -84.178600 8.984550 -0.406207 -0.000000 1.075730 -0.759741 2.896890 16.377300 -0.000001 -0.000001 0.824217 1.208200 -1.567850 6.456720 -0.000001 -0.000000 -13.515800 0.086384 -0.383225 12.994200 -0.242716 4.980390 -92.415000 7.614670 -72.344900 5.348090 -0.000007 -0.000001 -61.899700 19.890700 -22.723100 24.328600 0.000019 0.000005 7.772350 39.214600 -12.182900 22.291600 -0.000001 0.000005 -33.362500 5.420780 -3.617360 12.994500 -0.242716 -4.980390 88.394400 4.867800 -71.719400 -5.348130 -0.000001 -0.000004 -57.830800 34.289500 -22.844900 -24.328900 0.000322 -0.000009 2.558320 5.743880 -24.072300 -22.291500 -0.000108 -0.000004 -29.571600 5.042500 6.402860 -2.192480 -6.469440 -0.000000 -171.654000 -12.620800 -3.089010 39.081100 -0.000007 -0.000012 -0.008004 0.030325 14.784300 40.985400 -0.000006 -0.000013 -2.096670 17.418400 -64.752600 11.754300 -0.000000 0.000003 -0.002064 0.197146 -8.578330 -2.192510 6.469440 -0.000001 178.491000 11.044800 179.333000 -39.081100 -0.002282 -0.040193 0.013653 -0.048588 11.988100 -40.985400 0.000008 0.000006 -5.364480 10.243600 -64.432800 -11.754300 -0.000006 -0.000006 -0.011398 0.281470 -5.135020
0.000000 0.000000 0.000000 0.000000 0.000000 -0.000000 -3.129670 93.634900 -4.632740 87.647000 2.657430 1.016160 15.735700 0.000005 -0.000001 83.461500 86.326000 -82.018900 8.984550 -0.406207 -0.000000 -0.452321 -0.939967 2.879980 16.377300 -0.000001 -0.000001 -0.001224 1.221460 -1.376210 6.456720 -0.000001 -0.000000 -14.000900 0.449320 -0.517904 12.994200 -0.242716 4.980390 -92.043800 6.371470 -72.173300 5.348090 -0.000007 -0.000001 -58.545900 10.256100 -28.102400 24.328600 0.000019 0.000005 7.260190 38.868200 -11.475800 22.291600 -0.000001 0.000005 -30.977100 5.384240 -2.439110 12.994500 -0.242716 -4.980390 88.673700 3.854820 -70.997200 -5.348130 -0.000001 -0.000004 -51.988700 28.764600 -26.557900 -24.328900 0.000322 -0.000009 1.578580 2.598670 -31.345100 -22.291500 -0.000108 -0.000004 -31.220500 5.040000 6.457310 -2.192480 -6.469440 -0.000000 -171.917000 -13.202300 -3.689640 39.081100 -0.000007 -0.000012 -0.011120 0.045927 13.610100 40.985400 -0.000006 -0.000013 -2.192340 18.042900 -64.525700 11.754300 -0.000000 0.000003 -0.002422 0.201504 -8.401040 -2.192510 6.469440 -0.000001 178.531000 11.990300 178.952000 -39.081100 -0.002282 -0.040193 0.007969 -0.025142 10.437400 -40.985400 0.000008 0.000006 -6.367410 10.865700 -63.308700 -11.754300 -0.000006 -0.000006 -0.011498 0.282178 -5.106020
0.000000 0.000000 0.000000 0.000000 0.000000 -0.000000 -3.101170 93.741600 -4.440890 87.643500 2.922140 -0.263705 15.735700 0.000005 -0.000001 79.887300 87.031200 -78.441500 8.984550 -0.406207 -0.000000 -1.904460 -1.164260 2.871760 16.377300 -0.000001 -0.000001 -1.607300 1.303110 -1.277740 6.456720 -0.000001 -0.000000 -14.353300 0.871468 -0.534064 12.994200 -0.242716 4.980390 -91.667300 5.233160 -72.299900 5.348090 -0.000007 -0.000001 -52.807200 1.886630 -33.769700 24.328600 0.000019 0.000005 6.946360 35.066800 -11.973200 22.291600 -0.000001 0.000005 -22.756600 5.376140 -2.190500 12.994500 -0.242716 -4.980390 88.964200 2.987160 -70.865500 -5.348130 -0.000001 -0.000004 -45.377200 20.558500 -30.455200 -24.328900 0.000322 -0.000009 -0.506623 -0.657427 -37.485900 -22.291500 -0.000108 -0.000004 -24.772200 5.112560 4.854410 -2.192480 -6.469440 -0.000000 -172.236000 -12.638400 -4.266170 39.081100 -0.000007 -0.000012 -0.008315 0.037989 12.344700 40.985400 -0.000006 -0.000013 -2.406230 17.541300 -64.275300 11.754300 -0.000000 0.000003 -0.002700 0.204787 -8.267500 -2.192510 6.469440 -0.000001 178.612000 12.669600 178.726000 -39.081100 -0.002282 -0.040193 0.005757 -0.016092 8.538160 -40.985400 0.000008 0.000006 -7.587390 11.286900 -62.034800 -11.754300 -0.000006 -0.000006 -0.011463 0.281929 -5.116240
0.000000 0.000000 0.000000 0.000000 0.000000 -0.000000 -3.073570 93.848000 -4.217670 87.583400 2.967980 -1.570150 15.735700 0.000005 -0.000001 74.846600 87.704700 -73.420100 8.984550 -0.406207 -0.000000 -3.317250 -1.337310 2.814980 16.377300 -0.000001 -0.000001 -3.805030 1.324390 -0.909676 6.456720 -0.000001 -0.000000 -14.474500 1.456680 -0.519980 12.994200 -0.242716 4.980390 -91.313700 4.124860 -72.317500 5.348090 -0.000007 -0.000001 -46.033500 -6.898470 -39.035800 24.328600 0.000019 0.000005 6.220330 29.501800 -12.480600 22.291600 -0.000001 0.000005 -13.267200 5.328670 -0.780515 12.994500 -0.242716 -4.980390 89.352600 1.881760 -71.011300 -5.348130 -0.000001 -0.000004 -39.748800 9.941590 -34.561700 -24.328900 0.000322 -0.000009 -2.353680 -2.809430 -39.967400 -22.291500 -0.000108 -0.000004 -16.032300 5.200440 2.730070 -2.192480 -6.469440 -0.000000 -172.343000 -12.524600 -4.907210 39.081100 -0.000007 -0.000012 -0.016435 0.083223 11.170400 40.985400 -0.000006 -0.000013 -3.587220 17.414400 -63.481200 11.754300 -0.000000 0.000003 -0.002954 0.207706 -8.148680 -2.192510 6.469440 -0.000001 178.780000 13.248400 178.916000 -39.081100 -0.002282 -0.040193 0.007168 -0.037963 5.748790 -40.985400 0.000008 0.000006 -9.010550 11.701400 -60.206100 -11.754300 -0.000006 -0.000006 -0.011449 0.281832 -5.120190
0.000000 0.000000 0.000000 0.000000 0.000000 -0.000000 -3.023570 93.960700 -3.898100 87.556200 2.867820 -3.055950 15.735700 0.000005 -0.000001 67.443200 88.404600 -66.049400 8.984550 -0.406207 -0.000000 -4.801830 -1.375580 2.732220 16.377300 -0.000001 -0.000001 -6.195980 1.313620 -0.495942 6.456720 -0.000001 -0.000000 -14.702600 1.928990 -0.532208 12.994200 -0.242716 4.980390 -90.834600 2.617680 -72.309400 5.348090 -0.000007 -0.000001 -40.918100 -17.520700 -44.095900 24.328600 0.000019 0.000005 4.619610 23.311700 -11.539500 22.291600 -0.000001 0.000005 -5.858540 5.265440 0.997056 12.994500 -0.242716 -4.980390 89.881100 0.350321 -71.266500 -5.348130 -0.000001 -0.000004 -35.928900 -2.572720 -38.418500 -24.328900 0.000322 -0.000009 -4.076120 -5.015930 -39.177100 -22.291500 -0.000108 -0.000004 -8.837340 5.228700 1.986850 -2.192480 -6.469440 -0.000000 -172.428000 -12.940900 -5.495850 39.081100 -0.000007 -0.000012 -0.026016 0.152299 9.693460 40.985400 -0.000006 -0.000013 -5.618960 17.677200 -62.111300 11.754300 -0.000000 0.000003 -0.003007 0.208310 -8.124110 -2.192510 6.469440 -0.000001 179.026000 14.150500 178.715000 -39.081100 -0.002282 -0.040193 0.007683 -0.072030 3.442930 -40.985400 0.000008 0.000006 -9.797860 12.531200 -58.666100 -11.754300 -0.000006 -0.000006 -0.011231 0.280287 -5.183460
